<svg width="128" height="128" viewBox="0 0 128 128" fill="none" xmlns="http://www.w3.org/2000/svg">
<path d="M0 15C0 6.71573 6.71573 0 15 0H113C121.284 0 128 6.71573 128 15V113C128 121.284 121.284 128 113 128H15C6.71573 128 0 121.284 0 113V15Z" fill="white"/>
<path d="M128 108.637V100.637H66.6382C63.9865 100.32 61.3649 99.8834 58.773 99.3243C56.2611 98.5039 53.8022 97.5714 51.396 96.5265C49.1288 95.2492 46.9348 93.8738 44.813 92.4005C42.8698 90.729 41.0163 88.977 39.2515 87.1447C37.6974 85.155 36.2447 83.1055 34.894 80.9952C33.7769 78.7724 32.7707 76.5109 31.8735 74.2111C31.2248 71.8511 30.6899 69.4756 30.2681 67.0841C30.0977 64.6827 30.04 62.2883 30.0942 59.9005C30.3936 57.5488 30.7995 55.2256 31.313 52.9308C32.0558 50.72 32.8963 48.5578 33.8345 46.4435C34.9761 44.4575 36.2025 42.5372 37.5132 40.6818C38.9984 38.9857 40.5523 37.3693 42.1753 35.8322C43.9341 34.4841 45.7434 33.226 47.604 32.0577C49.5573 31.0991 51.5419 30.2369 53.5581 29.4708C55.6251 28.9241 57.7034 28.4762 59.7935 28.1271C61.8893 27.9994 63.9766 27.9693 66.0562 28.0363C68.0976 28.3177 70.112 28.6911 72.1001 29.1564C74.0096 29.8208 75.8753 30.5679 77.6978 31.3986C79.4067 32.4061 81.057 33.4854 82.6499 34.6359C84.0963 35.9321 85.4732 37.285 86.7808 38.6954C87.9242 40.2242 88.989 41.7945 89.9761 43.4064C90.7765 45.0893 91.4939 46.7966 92.1294 48.5284C92.5755 50.3053 92.9372 52.0892 93.2144 53.881C93.2995 55.6674 93.302 57.4442 93.2232 59.212C92.9604 60.9438 92.6202 62.6502 92.2036 64.3322C91.6182 65.9411 90.9635 67.5108 90.2407 69.0421C89.3712 70.4687 88.4448 71.8452 87.4595 73.171C86.3483 74.3741 85.1907 75.5164 83.9878 76.5997C82.6946 77.5353 81.3694 78.4044 80.0122 79.2081C78.5965 79.8533 77.1634 80.4295 75.7124 80.9366C74.2359 81.2807 72.7562 81.5553 71.273 81.7609C69.7911 81.8056 68.32 81.783 66.8589 81.6935C65.4364 81.4508 64.0371 81.1468 62.6607 80.7804C61.3507 80.275 60.0754 79.7148 58.8335 79.1007C57.6839 78.3678 56.578 77.5894 55.5142 76.7667C54.5604 75.8476 53.6569 74.894 52.8023 73.9064C52.071 72.8473 51.3936 71.7659 50.77 70.6613C50.2785 69.5135 49.8438 68.3546 49.4634 67.1847C49.2178 66.0012 49.0274 64.8184 48.8911 63.6359C48.8858 62.4647 48.9326 61.3051 49.0308 60.1564C49.2506 59.0479 49.5178 57.9607 49.8306 56.8937C50.2529 55.8841 50.7151 54.904 51.2173 53.9523C51.8097 53.0809 52.4334 52.2448 53.0894 51.4435C53.8161 50.7348 54.5657 50.0658 55.3384 49.4357C56.1597 48.9075 56.9945 48.421 57.8433 47.9757C58.7196 47.6359 59.6003 47.3384 60.4858 47.0822C61.3708 46.9323 62.2514 46.8225 63.1284 46.7521C63.9902 46.7818 64.8399 46.8475 65.6782 46.9503C66.4772 47.1437 67.2575 47.3687 68.02 47.6251C68.7281 47.9591 69.4122 48.3191 70.0737 48.7042C70.6696 49.1521 71.2385 49.6186 71.7808 50.1046C72.246 50.6332 72.682 51.174 73.0903 51.7267C73.4197 52.3063 73.7207 52.8905 73.9927 53.4806C74.1848 54.0784 74.3495 54.6749 74.4868 55.2706C74.5481 55.8565 74.5844 56.4353 74.5962 57.0079C74.5321 57.6249 74.4433 58.2279 74.3257 58.8165L82.1704 60.3829C82.3567 59.4502 82.4938 58.5035 82.5835 57.5441L82.603 57.338L82.6011 57.13C82.5908 56.1421 82.5282 55.1506 82.4146 54.1564L82.3911 53.9513L82.3472 53.7491C82.1266 52.7483 81.8523 51.755 81.5259 50.7697L81.4614 50.5743L81.3765 50.3868C80.9407 49.418 80.4529 48.4679 79.9136 47.5372L79.811 47.3595L79.6899 47.1945C79.0442 46.3044 78.3502 45.444 77.6079 44.6144L77.4712 44.462L77.3208 44.3243C76.4803 43.5587 75.5966 42.8339 74.6714 42.1495L74.5073 42.0284L74.3316 41.924C73.3212 41.325 72.2765 40.7757 71.1978 40.2765L71.0132 40.1915L70.8208 40.1251C69.6747 39.7301 68.5042 39.3926 67.3101 39.1124L67.1118 39.0665L66.9107 39.0402C65.6711 38.8792 64.4188 38.7815 63.1548 38.7462L62.9526 38.7404L62.7505 38.755C61.4661 38.8492 60.1818 39.0097 58.8989 39.2355L58.7007 39.2706L58.5064 39.3253C57.2303 39.6855 55.9682 40.1124 54.7212 40.6046L54.5337 40.6788L54.354 40.7716C53.1424 41.3973 51.9584 42.0865 50.8032 42.839L50.6353 42.9493L50.478 43.0753C49.3862 43.9546 48.3355 44.8918 47.3267 45.8868L47.1841 46.0284L47.0562 46.1837C46.1376 47.2926 45.2718 48.4513 44.4605 49.6593L44.3491 49.8253L44.2544 50.0031C43.5574 51.3064 42.9239 52.6486 42.355 54.0294L42.2788 54.215L42.2212 54.4073C41.7868 55.8597 41.4252 57.3382 41.1353 58.8419L41.0972 59.0392L41.0786 59.2384C40.9383 60.7865 40.8759 62.3462 40.8911 63.9161L40.8931 64.1163L40.9155 64.3146L40.9849 64.9083C41.155 66.2925 41.3864 67.6734 41.6792 69.0499L41.7202 69.2452L41.7817 69.4357C42.2785 70.9889 42.8549 72.5209 43.5103 74.0314L43.5894 74.215L43.687 74.3898C44.5006 75.8471 45.3902 77.2665 46.354 78.6486L46.4683 78.8126L46.5982 78.964C47.7095 80.2603 48.8888 81.5042 50.1353 82.6945L50.2788 82.8322L50.437 82.9542C51.8132 84.0283 53.246 85.0362 54.7358 85.9767L54.9048 86.0831L55.0835 86.172L55.6831 86.4679C57.089 87.1486 58.5285 87.7685 60.0005 88.3292L60.187 88.4005L60.3794 88.4523C62.1386 88.9285 63.9259 89.3174 65.7398 89.6193L65.936 89.6525L66.1343 89.6652L66.8316 89.7062C68.2262 89.78 69.6263 89.8022 71.0317 89.7716L71.7349 89.7521L71.9331 89.7452L72.1304 89.7189L72.8364 89.6193C74.2466 89.4119 75.6515 89.1509 77.0513 88.837L77.7505 88.6759L77.9439 88.63L78.1323 88.5656C79.7351 88.0126 81.3162 87.3884 82.8755 86.6935L83.5425 86.3907L83.7232 86.3077L83.895 86.2072C85.3862 85.3318 86.8412 84.3894 88.2603 83.381L88.8667 82.9445L89.0269 82.8273L89.1753 82.6954C90.4895 81.5207 91.7539 80.2863 92.9692 78.9933L93.4878 78.4357L93.6216 78.2892L93.7407 78.13C94.8179 76.6921 95.8341 75.2051 96.7886 73.6691L97.1939 73.0079L97.2964 72.838L97.3814 72.6583C98.1684 71.0061 98.885 69.3173 99.5298 67.5919L99.8013 66.8497L99.8687 66.6632L99.9165 66.4708C100.371 64.663 100.747 62.8327 101.044 60.9806L101.167 60.1857L101.197 59.9894L101.207 59.7911C101.311 57.6251 101.306 55.4502 101.195 53.2677L101.185 53.0704L101.155 52.8741C100.825 50.6918 100.385 48.5226 99.8364 46.3673L99.7876 46.1749L99.7202 45.9884C98.9539 43.8775 98.0807 41.8018 97.1021 39.7618L97.0161 39.5831L96.9136 39.4142C95.7269 37.4624 94.4411 35.5671 93.0571 33.7286L92.938 33.5704L92.8042 33.424C91.2307 31.7153 89.5691 30.0836 87.8218 28.5275L87.6743 28.3956L87.5142 28.2794C85.6042 26.8909 83.6223 25.5954 81.5698 24.3937L81.3989 24.2931L81.2192 24.2111C79.0385 23.2089 76.8052 22.3139 74.52 21.5265L74.3325 21.462L74.1401 21.4161C71.7675 20.8532 69.3638 20.4084 66.9302 20.0802L66.7349 20.0538L66.5366 20.046C64.0611 19.9589 61.5785 19.9957 59.0894 20.1544L58.8921 20.1671L58.6968 20.1984C56.2143 20.6055 53.7491 21.1366 51.3023 21.7911L51.1108 21.8429L50.9263 21.9122C48.536 22.8125 46.1876 23.8324 43.8823 24.9718L43.7046 25.0597L43.5366 25.1642C41.337 26.5367 39.2035 28.0201 37.1362 29.6134L36.98 29.7345L36.8355 29.8702C34.92 31.6743 33.0926 33.5753 31.353 35.5724L31.2232 35.7218L31.1079 35.8829C29.5613 38.0594 28.1216 40.3151 26.7886 42.6486L26.6909 42.8195L26.6099 43.0001C25.5047 45.4731 24.5212 48.0036 23.6597 50.59L23.5972 50.7775L23.5542 50.9698C22.9472 53.6493 22.4725 56.3612 22.1304 59.1046L22.106 59.3009L22.1011 59.4982C22.0305 62.2832 22.0977 65.0744 22.3032 67.8702L22.3179 68.0665L22.3521 68.2618C22.8357 71.0446 23.4571 73.8057 24.2173 76.5441L24.27 76.7345L24.3423 76.9181C25.3763 79.5881 26.5434 82.2087 27.8433 84.7794L27.9321 84.9562L28.0376 85.1232L28.6284 86.0372C30.0186 88.1626 31.5024 90.2301 33.0796 92.2394L33.2017 92.3947L33.3384 92.5372C35.373 94.6601 37.5141 96.684 39.7612 98.6075L39.9107 98.7355L40.0728 98.8488C42.5158 100.554 45.0453 102.139 47.6597 103.604L47.8316 103.699L48.0122 103.778C50.7774 104.987 53.6043 106.059 56.4917 106.995L56.6802 107.056L56.8726 107.099L57.9937 107.336C60.614 107.874 63.2604 108.298 65.9321 108.609L66.1636 108.637H128Z" fill="black"/>
<mask id="path-3-inside-1_5_1017" fill="white">
<path d="M25.4967 100.693C27.5808 102.309 29.7738 103.85 32.0749 105.314L32.2773 105.442L32.4941 105.555C34.6003 106.647 36.7698 107.674 39 108.637H0V100.637H25.4231L25.4967 100.693Z"/>
</mask>
<path d="M25.4967 100.693L30.3989 94.3713L30.3876 94.3626L30.3763 94.3539L25.4967 100.693ZM32.0749 105.314L36.373 98.5662L36.3689 98.5636L32.0749 105.314ZM32.2773 105.442L27.9792 112.19L28.2806 112.382L28.5978 112.546L32.2773 105.442ZM32.4941 105.555L36.1774 98.4531L36.1735 98.4511L32.4941 105.555ZM39 108.637V116.637L42.1708 101.292L39 108.637ZM0 108.637H-8V116.637H0V108.637ZM0 100.637V92.6368H-8V100.637H0ZM25.4231 100.637L30.3027 94.2972L28.1454 92.6368H25.4231V100.637ZM25.4967 100.693L20.5945 107.015C22.8811 108.789 25.2776 110.471 27.7809 112.063L32.0749 105.314L36.3689 98.5636C34.27 97.2283 32.2805 95.8304 30.3989 94.3713L25.4967 100.693ZM32.0749 105.314L27.7769 112.061L27.9792 112.19L32.2773 105.442L36.5753 98.6951L36.3729 98.5662L32.0749 105.314ZM32.2773 105.442L28.5978 112.546L28.8147 112.658L32.4941 105.555L36.1735 98.4511L35.9567 98.3388L32.2773 105.442ZM32.4941 105.555L28.8107 112.656C31.0912 113.839 33.4321 114.947 35.8292 115.982L39 108.637L42.1708 101.292C40.1076 100.401 38.1093 99.4551 36.1774 98.4531L32.4941 105.555ZM39 108.637V100.637H0V108.637V116.637H39V108.637ZM0 108.637H8V100.637H0H-8V108.637H0ZM0 100.637V108.637H25.4231V100.637V92.6368H0V100.637ZM25.4231 100.637L20.5435 106.976L20.6171 107.033L25.4967 100.693L30.3763 94.3539L30.3027 94.2972L25.4231 100.637Z" fill="black" mask="url(#path-3-inside-1_5_1017)"/>
</svg>
