<svg width="128" height="128" viewBox="0 0 128 128" fill="none" xmlns="http://www.w3.org/2000/svg">
<path d="M0 15C0 6.71573 6.71573 0 15 0H113C121.284 0 128 6.71573 128 15V113C128 121.284 121.284 128 113 128H15C6.71573 128 0 121.284 0 113V15Z" fill="black"/>
<path d="M59.0894 20.1541C61.2674 20.0152 63.4403 19.97 65.6079 20.0193L66.5366 20.0457L66.7349 20.0525L66.9302 20.0799C69.0598 20.367 71.1665 20.7438 73.2495 21.2107L74.1401 21.4158L74.3325 21.4617L74.52 21.5261C76.5195 22.2151 78.4793 22.9863 80.3989 23.8396L81.2192 24.2107L81.3989 24.2927L81.5698 24.3933C83.3658 25.4449 85.1075 26.5679 86.7944 27.7625L87.5142 28.2781L87.6743 28.3953L87.8218 28.5271C89.3507 29.8887 90.8136 31.3085 92.2095 32.7869L92.8042 33.4236L92.938 33.5701L93.0571 33.7283L93.5718 34.4197C94.5914 35.8094 95.5557 37.231 96.4644 38.6843L96.9136 39.4138L97.0161 39.5828L97.1021 39.7615C97.9583 41.5464 98.7334 43.3588 99.4273 45.198L99.7202 45.9881L99.7876 46.1746L99.8364 46.367C100.316 48.2527 100.713 50.149 101.026 52.0554L101.155 52.8738L101.185 53.0701L101.195 53.2674C101.306 55.4499 101.311 57.6247 101.207 59.7908L101.197 59.989L101.167 60.1853C100.853 62.3091 100.436 64.4046 99.9165 66.4705L99.8687 66.6629L99.8013 66.8494C99.0875 68.8332 98.2808 70.7696 97.3814 72.658L97.2964 72.8377L97.1939 73.0076C96.1231 74.7789 94.9717 76.4864 93.7407 78.1297L93.6216 78.2888L93.4878 78.4353C92.115 79.9324 90.6774 81.3525 89.1753 82.6951L89.0269 82.8269L88.8667 82.9441C87.2567 84.1183 85.5992 85.2063 83.895 86.2068L83.7232 86.3074L83.5425 86.3904C81.7675 87.2078 79.9641 87.9333 78.1323 88.5652L77.9439 88.6297L77.7505 88.6756C75.8865 89.1176 74.0128 89.4648 72.1304 89.7176L71.9331 89.7449L71.7349 89.7517C69.8587 89.8156 67.9913 89.7865 66.1343 89.6648L65.936 89.6521L65.7398 89.6189C63.9259 89.3171 62.1386 88.9282 60.3794 88.4519L60.187 88.4002L60.0005 88.3289C58.5285 87.7682 57.089 87.1483 55.6831 86.4676L55.0835 86.1717L54.9048 86.0828L54.7358 85.9763C53.246 85.0359 51.8132 84.0279 50.437 82.9539L50.2788 82.8318L50.1353 82.6941C48.8888 81.5038 47.7095 80.26 46.5982 78.9636L46.4683 78.8123L46.354 78.6482C45.3902 77.2662 44.5006 75.8467 43.687 74.3894L43.5894 74.2146L43.5103 74.031C42.8549 72.5205 42.2785 70.9886 41.7817 69.4353L41.7202 69.2449L41.6792 69.0486C41.3864 67.6723 41.155 66.292 40.9849 64.908L40.9155 64.3142L40.8931 64.116L40.8911 63.9158C40.8759 62.3459 40.9383 60.7861 41.0786 59.2381L41.0972 59.0388L41.1353 58.8416C41.4252 57.3378 41.7868 55.8594 42.2212 54.407L42.2788 54.2146L42.355 54.0291C42.9239 52.6483 43.5574 51.306 44.2544 50.0027L44.3491 49.825L44.4605 49.659C45.2718 48.451 46.1376 47.2922 47.0562 46.1834L47.1841 46.0281L47.3267 45.8865C48.3355 44.8915 49.3862 43.9542 50.478 43.075L50.6353 42.949L50.8032 42.8386C51.9585 42.0861 53.1423 41.3961 54.354 40.7703L54.5337 40.6785L54.7212 40.6043C55.9682 40.112 57.2303 39.6852 58.5064 39.325L58.7007 39.2703L58.8989 39.2351C60.1818 39.0094 61.4661 38.8488 62.7505 38.7547L62.9526 38.74L63.1548 38.7459C64.1029 38.7724 65.0445 38.8343 65.979 38.9314L66.9107 39.0398L67.1118 39.0662L67.3101 39.1121C68.2057 39.3222 69.0878 39.565 69.9566 39.8396L70.8208 40.1248L71.0132 40.1912L71.1978 40.2761C72.007 40.6506 72.797 41.0536 73.5679 41.4842L74.3316 41.9236L74.5073 42.0281L74.6714 42.1492C75.3653 42.6625 76.0357 43.1986 76.6821 43.7576L77.3208 44.324L77.4712 44.4617L77.6079 44.614C78.1646 45.2363 78.6942 45.8758 79.1968 46.532L79.6899 47.1941L79.811 47.3592L79.9136 47.5369C80.318 48.2347 80.6932 48.9435 81.0396 49.6629L81.3765 50.3865L81.4614 50.574L81.5259 50.7693C81.7707 51.5084 81.9859 52.2519 82.1714 52.9998L82.3472 53.7488L82.3911 53.951L82.4146 54.156C82.5282 55.1503 82.5908 56.1417 82.6011 57.1297L82.603 57.3377L82.5835 57.5437C82.4938 58.5032 82.3567 59.4498 82.1704 60.3826L74.3257 58.8162C74.4433 58.2272 74.5321 57.6239 74.5962 57.0066C74.5844 56.434 74.5481 55.8551 74.4868 55.2693C74.3494 54.6736 74.1848 54.0771 73.9927 53.4793C73.7207 52.8892 73.4197 52.3049 73.0903 51.7254C72.682 51.1727 72.246 50.6319 71.7808 50.1033C71.2385 49.6173 70.6696 49.1508 70.0737 48.7029C69.4122 48.3178 68.7281 47.9578 68.02 47.6238C67.2575 47.3674 66.4772 47.1423 65.6782 46.949C64.8399 46.8462 63.9902 46.7805 63.1284 46.7508C62.2514 46.8212 61.3707 46.931 60.4858 47.0808C59.6003 47.3371 58.7196 47.6346 57.8433 47.9744C56.9945 48.4196 56.1597 48.9062 55.3384 49.4343C54.5657 50.0644 53.8161 50.7336 53.0894 51.4422C52.4334 52.2434 51.8097 53.0796 51.2173 53.951C50.7151 54.9026 50.2529 55.8828 49.8306 56.8924C49.5178 57.9593 49.2507 59.0466 49.0308 60.1551C48.9326 61.3037 48.8858 62.4633 48.8911 63.6345C49.0273 64.8171 49.2178 65.9998 49.4634 67.1834C49.8436 68.353 50.2787 69.5114 50.77 70.659C51.3937 71.7638 52.0708 72.8458 52.8023 73.9051C53.6569 74.8927 54.5604 75.8462 55.5142 76.7654C56.5795 77.5893 57.6871 78.3685 58.8384 79.1023C60.0787 79.7154 61.3525 80.2744 62.6607 80.7791C64.0374 81.1455 65.437 81.4494 66.8599 81.6922C68.3206 81.7816 69.7914 81.8043 71.273 81.7595C72.7562 81.554 74.2358 81.2794 75.7124 80.9353C77.1635 80.4282 78.5965 79.852 80.0122 79.2068C81.37 78.4027 82.696 77.5335 83.9898 76.5974C85.1913 75.5153 86.3465 74.3733 87.4566 73.1717C88.4426 71.845 89.3706 70.4683 90.2407 69.0408C90.9635 67.5094 91.6182 65.9398 92.2036 64.3308C92.6202 62.6486 92.9604 60.9419 93.2232 59.2097C93.3019 57.4422 93.2995 55.6657 93.2144 53.8797C92.9372 52.0879 92.5756 50.304 92.1294 48.5271C91.4939 46.7953 90.7765 45.088 89.9761 43.4051C88.989 41.7932 87.9242 40.2229 86.7808 38.6941C85.4732 37.2837 84.0963 35.9308 82.6499 34.6345C81.057 33.4841 79.4067 32.4048 77.6978 31.3972C75.8754 30.5666 74.0096 29.8194 72.1001 29.1551C70.1121 28.6898 68.0976 28.3163 66.0562 28.0349C63.976 27.968 61.8879 27.998 59.7915 28.1258C57.7021 28.4748 55.6245 28.9229 53.5581 29.4695C51.5419 30.2356 49.5573 31.0978 47.604 32.0564C45.7435 33.2246 43.9341 34.4828 42.1753 35.8308C40.5532 37.3672 39.0007 38.9834 37.5161 40.6785C36.2047 42.5347 34.9767 44.4552 33.8345 46.4422C32.8963 48.5565 32.0558 50.7187 31.313 52.9295C30.7994 55.2243 30.3936 57.5475 30.0942 59.8992C30.04 62.287 30.0978 64.6813 30.2681 67.0828C30.6899 69.4743 31.2249 71.8498 31.8735 74.2097C32.7707 76.5096 33.7769 78.7711 34.894 80.9939C36.2447 83.1042 37.6974 85.1537 39.2515 87.1433C41.016 88.9754 42.8692 90.727 44.812 92.3982C46.9341 93.8718 49.1284 95.2477 51.396 96.5252C53.8022 97.5701 56.2611 98.5026 58.773 99.323C61.3649 99.8821 63.9864 100.32 66.6382 100.636H128V108.636H66.1636L65.9321 108.609C62.8789 108.253 59.8587 107.749 56.8726 107.097L56.6802 107.055L56.4917 106.995C53.6043 106.059 50.7774 104.987 48.0122 103.778L47.8316 103.699L47.6597 103.603C45.0453 102.139 42.5158 100.553 40.0728 98.8484L39.9107 98.7351L39.7612 98.6072C37.5141 96.6836 35.373 94.6598 33.3384 92.5369L33.2017 92.3943L33.0796 92.239C31.5024 90.2298 30.0186 88.1623 28.6284 86.0369L28.0376 85.1218L27.9321 84.9558L27.8433 84.7791C26.5434 82.2084 25.3763 79.5877 24.3423 76.9177L24.27 76.7342L24.2173 76.5437C23.5521 74.1475 22.9931 71.7338 22.5396 69.3035L22.3521 68.2615L22.3179 68.0662L22.3032 67.8699C22.0977 65.074 22.0305 62.2829 22.1011 59.4978L22.106 59.3006L22.1304 59.1043C22.4725 56.3608 22.9472 53.649 23.5542 50.9695L23.5972 50.7771L23.6597 50.5896C24.5212 48.0032 25.5047 45.4728 26.6099 42.9998L26.6909 42.8191L26.7886 42.6482C28.1216 40.3148 29.5613 38.0591 31.1079 35.8826L31.2232 35.7215L31.353 35.572C33.0926 33.5749 34.92 31.6739 36.8355 29.8699L36.98 29.7342L37.1362 29.6131C39.2035 28.0197 41.337 26.5364 43.5366 25.1638L43.7046 25.0593L43.8823 24.9715L44.7485 24.5496C46.775 23.5787 48.8347 22.6997 50.9263 21.9119L51.1108 21.8426L51.3023 21.7908L52.2202 21.5515C54.3653 21.0058 56.5244 20.5543 58.6968 20.198L58.8921 20.1658L59.0894 20.1541Z" fill="white"/>
<mask id="path-3-inside-1_5_1022" fill="white">
<path d="M25.4967 100.693C27.5808 102.309 29.7738 103.849 32.0749 105.313L32.2773 105.442L32.4941 105.554C34.6003 106.647 36.7698 107.674 39 108.636H0V100.636H25.4231L25.4967 100.693Z"/>
</mask>
<path d="M25.4967 100.693L30.3989 94.371L30.3876 94.3622L30.3763 94.3535L25.4967 100.693ZM32.0749 105.313L36.373 98.5658L36.3689 98.5632L32.0749 105.313ZM32.2773 105.442L27.9792 112.189L28.2806 112.381L28.5978 112.546L32.2773 105.442ZM32.4941 105.554L36.1774 98.4528L36.1735 98.4507L32.4941 105.554ZM39 108.636V116.636L42.1708 101.292L39 108.636ZM0 108.636H-8V116.636H0V108.636ZM0 100.636V92.6364H-8V100.636H0ZM25.4231 100.636L30.3027 94.2969L28.1454 92.6364H25.4231V100.636ZM25.4967 100.693L20.5945 107.015C22.8811 108.788 25.2776 110.471 27.7809 112.063L32.0749 105.313L36.3689 98.5632C34.27 97.228 32.2805 95.83 30.3989 94.371L25.4967 100.693ZM32.0749 105.313L27.7769 112.061L27.9792 112.189L32.2773 105.442L36.5753 98.6947L36.3729 98.5658L32.0749 105.313ZM32.2773 105.442L28.5978 112.546L28.8147 112.658L32.4941 105.554L36.1735 98.4507L35.9567 98.3384L32.2773 105.442ZM32.4941 105.554L28.8107 112.656C31.0912 113.839 33.4321 114.946 35.8292 115.981L39 108.636L42.1708 101.292C40.1076 100.401 38.1093 99.4548 36.1774 98.4528L32.4941 105.554ZM39 108.636V100.636H0V108.636V116.636H39V108.636ZM0 108.636H8V100.636H0H-8V108.636H0ZM0 100.636V108.636H25.4231V100.636V92.6364H0V100.636ZM25.4231 100.636L20.5435 106.976L20.6171 107.033L25.4967 100.693L30.3763 94.3535L30.3027 94.2969L25.4231 100.636Z" fill="white" mask="url(#path-3-inside-1_5_1022)"/>
</svg>
